<svg width="30" height="30" viewBox="0 0 30 30" fill="none" xmlns="http://www.w3.org/2000/svg">
<path d="M1.25422 15C1.8865 14.9917 2.42164 15.4652 2.49048 16.0938C3.07402 22.9934 9.14035 28.1136 16.04 27.53C22.9396 26.9465 28.0598 20.8801 27.4762 13.9805C26.8926 7.08082 20.8263 1.96066 13.9267 2.5442C10.9394 2.79686 8.14156 4.11158 6.04045 6.24996H9.94296C10.6333 6.24996 11.1929 6.80959 11.1929 7.49994C11.1929 8.19029 10.6333 8.74992 9.94296 8.74992H4.76421C3.48253 8.74922 2.44367 7.71035 2.44296 6.42867V1.24998C2.44296 0.559629 3.00259 0 3.69295 0C4.3833 0 4.94293 0.559629 4.94293 1.24998V3.8475C11.1126 -1.66553 20.5832 -1.13326 26.0963 5.03637C31.6093 11.206 31.077 20.6766 24.9074 26.1896C18.7378 31.7027 9.26715 31.1704 3.75412 25.0008C1.61105 22.6025 0.296675 19.5781 0.00546455 16.375C-0.058754 15.6827 0.450367 15.0696 1.14259 15.0053C1.17968 15.0019 1.21689 15.0001 1.25422 15Z" fill="white"/>
</svg>
