<svg width="18" height="9" viewBox="0 0 18 9" fill="none" xmlns="http://www.w3.org/2000/svg">
<path d="M16.854 -0.000197411C16.7062 -0.000165939 16.5599 0.0289946 16.4233 0.0856171C16.2868 0.142241 16.1628 0.225217 16.0583 0.329803L10.3051 6.08305C10.1309 6.25721 9.92421 6.39537 9.6967 6.48963C9.46918 6.58389 9.22532 6.6324 8.97905 6.6324C8.73278 6.6324 8.48892 6.58389 8.26141 6.48963C8.03389 6.39537 7.82717 6.25721 7.65305 6.08305L1.90655 0.336552C1.69437 0.131624 1.4102 0.0182304 1.11522 0.0207939C0.820253 0.0233564 0.538089 0.141672 0.329505 0.350256C0.120921 0.558841 0.00260575 0.841004 4.25279e-05 1.13598C-0.00252069 1.43095 0.110873 1.71512 0.315801 1.9273L6.0623 7.6738C6.83637 8.44643 7.88537 8.88037 8.97905 8.88037C10.0727 8.88037 11.1217 8.44643 11.8958 7.6738L17.6498 1.9198C17.807 1.76243 17.914 1.56199 17.9573 1.34382C18.0006 1.12565 17.9782 0.899547 17.8931 0.694071C17.8079 0.488596 17.6638 0.312975 17.4788 0.189403C17.2939 0.0658293 17.0765 -0.000150681 16.854 -0.000197411Z" fill="#E4E4E4"/>
</svg>
