<svg width="18" height="18" viewBox="0 0 18 18" fill="none" xmlns="http://www.w3.org/2000/svg">
<g clip-path="url(#clip0_60_1702)">
<path d="M13.125 0.687988C12.2804 0.701124 11.4543 0.936878 10.73 1.37144C10.0058 1.80601 9.40899 2.42399 8.99997 3.16299C8.59095 2.42399 7.99417 1.80601 7.2699 1.37144C6.54562 0.936878 5.71951 0.701124 4.87497 0.687988C3.52867 0.746481 2.26025 1.33543 1.34681 2.32616C0.433363 3.3169 -0.0508442 4.62888 -3.1282e-05 5.97549C-3.1282e-05 11.0567 8.21697 16.9255 8.56647 17.1745L8.99997 17.4812L9.43347 17.1745C9.78297 16.927 18 11.0567 18 5.97549C18.0508 4.62888 17.5666 3.3169 16.6531 2.32616C15.7397 1.33543 14.4713 0.746481 13.125 0.687988Z" fill="#E4E4E4"/>
</g>
<defs>
<clipPath id="clip0_60_1702">
<rect width="18" height="18" fill="white"/>
</clipPath>
</defs>
</svg>
