<svg width="30" height="30" viewBox="0 0 30 30" fill="none" xmlns="http://www.w3.org/2000/svg">
<path d="M28.6524 15C28.0201 14.9917 27.4849 15.4652 27.4161 16.0938C26.8326 22.9934 20.7662 28.1136 13.8666 27.53C6.96694 26.9465 1.84678 20.8801 2.43037 13.9805C3.01397 7.08082 9.08024 1.96066 15.9799 2.5442C18.9672 2.79686 21.765 4.11158 23.8661 6.24996H19.9636C19.2733 6.24996 18.7136 6.80959 18.7136 7.49994C18.7136 8.19029 19.2733 8.74992 19.9636 8.74992H25.1424C26.424 8.74922 27.4629 7.71035 27.4636 6.42867V1.24998C27.4636 0.559629 26.904 0 26.2136 0C25.5233 0 24.9637 0.559629 24.9637 1.24998V3.8475C18.794 -1.66553 9.32334 -1.13326 3.81031 5.03637C-1.70271 11.206 -1.17045 20.6766 4.99918 26.1896C11.1688 31.7027 20.6394 31.1704 26.1525 25.0008C28.2955 22.6025 29.6099 19.5781 29.9011 16.375C29.9653 15.6827 29.4562 15.0696 28.764 15.0053C28.7269 15.0019 28.6897 15.0001 28.6524 15Z" fill="white"/>
</svg>
