<svg width="13" height="13" viewBox="0 0 13 13" fill="none" xmlns="http://www.w3.org/2000/svg">
<path d="M2 1.68816C2.00002 1.7786 2.02301 1.86815 2.06764 1.95169C2.11228 2.03523 2.17768 2.11112 2.26012 2.17503L6.79505 5.69505C6.93233 5.80158 7.04123 5.92805 7.11553 6.06726C7.18982 6.20646 7.22807 6.35566 7.22807 6.50634C7.22807 6.65701 7.18982 6.80621 7.11553 6.94541C7.04123 7.08462 6.93233 7.21109 6.79505 7.31762L2.26544 10.8335C2.10391 10.9633 2.01453 11.1372 2.01655 11.3177C2.01857 11.4981 2.11183 11.6708 2.27624 11.7984C2.44065 11.926 2.66307 11.9984 2.89558 12C3.12808 12.0015 3.35208 11.9322 3.51933 11.8068L8.04894 8.29089C8.65795 7.81729 9 7.17548 9 6.50634C9 5.83719 8.65795 5.19538 8.04894 4.72178L3.51342 1.2013C3.38937 1.10513 3.23138 1.03966 3.05941 1.01317C2.88744 0.986676 2.70921 1.00035 2.54725 1.05245C2.38528 1.10455 2.24685 1.19275 2.14945 1.3059C2.05204 1.41905 2.00004 1.55208 2 1.68816Z" fill="#E4E4E4"/>
</svg>
