<svg width="30" height="22" viewBox="0 0 30 22" fill="none" xmlns="http://www.w3.org/2000/svg">
<path d="M16.9749 21.637C17.9795 21.636 18.9574 21.3141 19.7661 20.7182L28.0674 14.6307C28.6658 14.1913 29.1523 13.6172 29.4877 12.9549C29.8231 12.2926 29.9978 11.5606 29.9978 10.8182C29.9978 10.0758 29.8231 9.34385 29.4877 8.68152C29.1523 8.0192 28.6658 7.44511 28.0674 7.0057L19.7661 0.918203C19.0853 0.417892 18.2828 0.109134 17.4422 0.0240439C16.6016 -0.0610466 15.7536 0.0806383 14.9863 0.434362C14.219 0.788085 13.5605 1.34093 13.0793 2.03539C12.598 2.72985 12.3116 3.54056 12.2499 4.3832L7.5224 0.915704C6.81756 0.40014 5.98375 0.0897675 5.11335 0.0189725C4.24296 -0.0518226 3.36995 0.119724 2.59106 0.514606C1.81217 0.909488 1.1578 1.51229 0.700449 2.25622C0.243101 3.00016 0.000629425 3.85618 -9.91821e-05 4.72945V16.9045C0.000123978 17.7784 0.242443 18.6351 0.699978 19.3797C1.15751 20.1242 1.81237 20.7275 2.59191 21.1225C3.37144 21.5175 4.24516 21.6888 5.11614 21.6175C5.98713 21.5461 6.82131 21.2348 7.52615 20.7182L12.2499 17.2507C12.3385 18.4425 12.8743 19.5568 13.7498 20.3702C14.6254 21.1837 15.776 21.6361 16.9711 21.637H16.9749ZM13.4911 13.5432C13.225 13.5432 12.9657 13.6281 12.7512 13.7857L6.0474 18.702C5.71513 18.9453 5.32198 19.0918 4.91152 19.1254C4.50106 19.1589 4.08933 19.0781 3.72198 18.892C3.35461 18.7058 3.04597 18.4216 2.83027 18.0708C2.61456 17.72 2.50021 17.3163 2.4999 16.9045V4.72945C2.5005 4.31761 2.61508 3.91396 2.83094 3.56321C3.0468 3.21247 3.35554 2.92832 3.72294 2.74222C4.09035 2.55612 4.50209 2.47534 4.91257 2.50883C5.32306 2.54232 5.71627 2.68877 6.04865 2.93195L12.7499 7.8482C12.9361 7.98501 13.1567 8.06751 13.387 8.08654C13.6173 8.10557 13.8483 8.06038 14.0545 7.956C14.2607 7.85162 14.4339 7.69213 14.5549 7.49525C14.6759 7.29836 14.7399 7.07179 14.7399 6.8407V4.72945C14.74 4.31742 14.8543 3.91348 15.0701 3.56245C15.2859 3.21143 15.5947 2.92705 15.9623 2.74087C16.3298 2.55469 16.7418 2.47398 17.1525 2.50771C17.5631 2.54144 17.9564 2.68829 18.2886 2.93195L26.5886 9.01945C26.871 9.22645 27.1007 9.49706 27.2589 9.80935C27.4172 10.1216 27.4997 10.4668 27.4997 10.817C27.4997 11.1671 27.4172 11.5123 27.2589 11.8246C27.1007 12.1368 26.871 12.4075 26.5886 12.6145L18.2886 18.702C17.9564 18.9453 17.5632 19.0918 17.1528 19.1254C16.7423 19.1589 16.3306 19.0781 15.9632 18.892C15.5959 18.7058 15.2872 18.4216 15.0715 18.0708C14.8558 17.72 14.7415 17.3163 14.7411 16.9045V14.7932C14.7411 14.4617 14.6095 14.1437 14.375 13.9093C14.1406 13.6749 13.8227 13.5432 13.4911 13.5432Z" fill="white"/>
</svg>
