<svg width="23" height="23" viewBox="0 0 23 23" fill="none" xmlns="http://www.w3.org/2000/svg">
<g clip-path="url(#clip0_60_1771)">
<path d="M6.04291 0C5.17994 0 4.35231 0.342815 3.74209 0.95303C3.13188 1.56325 2.78906 2.39087 2.78906 3.25385V19.0583C2.78906 19.9212 3.13188 20.7489 3.74209 21.3591C4.35231 21.9693 5.17994 22.3121 6.04291 22.3121C6.90589 22.3121 7.73351 21.9693 8.34373 21.3591C8.95394 20.7489 9.29676 19.9212 9.29676 19.0583V3.25385C9.29676 2.39087 8.95394 1.56325 8.34373 0.95303C7.73351 0.342815 6.90589 0 6.04291 0Z" fill="white"/>
<path d="M16.2692 0C15.4063 0 14.5786 0.342815 13.9684 0.95303C13.3582 1.56325 13.0154 2.39087 13.0154 3.25385V19.0583C13.0154 19.9212 13.3582 20.7489 13.9684 21.3591C14.5786 21.9693 15.4063 22.3121 16.2692 22.3121C17.1322 22.3121 17.9598 21.9693 18.57 21.3591C19.1803 20.7489 19.5231 19.9212 19.5231 19.0583V3.25385C19.5231 2.39087 19.1803 1.56325 18.57 0.95303C17.9598 0.342815 17.1322 0 16.2692 0Z" fill="white"/>
</g>
<defs>
<clipPath id="clip0_60_1771">
<rect width="22.3121" height="22.3121" fill="white"/>
</clipPath>
</defs>
</svg>
