<svg width="30" height="22" viewBox="0 0 30 22" fill="none" xmlns="http://www.w3.org/2000/svg">
<path d="M13.0229 21.637C12.0183 21.636 11.0404 21.3141 10.2317 20.7182L1.9304 14.6307C1.33202 14.1913 0.845466 13.6172 0.510107 12.9549C0.174748 12.2926 0 11.5606 0 10.8182C0 10.0758 0.174748 9.34385 0.510107 8.68152C0.845466 8.0192 1.33202 7.44511 1.9304 7.0057L10.2317 0.918203C10.9125 0.417892 11.715 0.109134 12.5556 0.0240439C13.3962 -0.0610466 14.2442 0.0806383 15.0115 0.434362C15.7788 0.788085 16.4373 1.34093 16.9185 2.03539C17.3998 2.72985 17.6862 3.54056 17.7479 4.3832L22.4754 0.915704C23.1802 0.40014 24.014 0.0897675 24.8844 0.0189725C25.7548 -0.0518226 26.6279 0.119724 27.4067 0.514606C28.1856 0.909488 28.84 1.51229 29.2974 2.25622C29.7547 3.00016 29.9972 3.85618 29.9979 4.72945V16.9045C29.9977 17.7784 29.7554 18.6351 29.2978 19.3797C28.8403 20.1242 28.1854 20.7275 27.4059 21.1225C26.6264 21.5175 25.7526 21.6888 24.8817 21.6175C24.0107 21.5461 23.1765 21.2348 22.4717 20.7182L17.7479 17.2507C17.6593 18.4425 17.1235 19.5568 16.248 20.3702C15.3724 21.1837 14.2218 21.6361 13.0267 21.637H13.0229ZM16.5067 13.5432C16.7728 13.5432 17.0321 13.6281 17.2467 13.7857L23.9504 18.702C24.2827 18.9453 24.6758 19.0918 25.0863 19.1254C25.4967 19.1589 25.9085 19.0781 26.2758 18.892C26.6432 18.7058 26.9518 18.4216 27.1675 18.0708C27.3832 17.72 27.4976 17.3163 27.4979 16.9045V4.72945C27.4973 4.31761 27.3827 3.91396 27.1669 3.56321C26.951 3.21247 26.6423 2.92832 26.2749 2.74222C25.9075 2.55612 25.4957 2.47534 25.0852 2.50883C24.6747 2.54232 24.2815 2.68877 23.9492 2.93195L17.2479 7.8482C17.0617 7.98501 16.8411 8.06751 16.6108 8.08654C16.3805 8.10557 16.1495 8.06038 15.9433 7.956C15.7371 7.85162 15.5639 7.69213 15.4429 7.49525C15.3219 7.29836 15.2579 7.07179 15.2579 6.8407V4.72945C15.2578 4.31742 15.1435 3.91348 14.9277 3.56245C14.7119 3.21143 14.4031 2.92705 14.0355 2.74087C13.668 2.55469 13.256 2.47398 12.8454 2.50771C12.4347 2.54144 12.0414 2.68829 11.7092 2.93195L3.40915 9.01945C3.12678 9.22645 2.89715 9.49706 2.73887 9.80935C2.58058 10.1216 2.4981 10.4668 2.4981 10.817C2.4981 11.1671 2.58058 11.5123 2.73887 11.8246C2.89715 12.1368 3.12678 12.4075 3.40915 12.6145L11.7092 18.702C12.0414 18.9453 12.4346 19.0918 12.845 19.1254C13.2555 19.1589 13.6672 19.0781 14.0346 18.892C14.4019 18.7058 14.7106 18.4216 14.9263 18.0708C15.142 17.72 15.2563 17.3163 15.2567 16.9045V14.7932C15.2567 14.4617 15.3883 14.1437 15.6228 13.9093C15.8572 13.6749 16.1751 13.5432 16.5067 13.5432Z" fill="white"/>
</svg>
