<svg width="12" height="8" viewBox="0 0 12 8" fill="none" xmlns="http://www.w3.org/2000/svg">
<path d="M1.62811 7.81006V0.660058L2.25511 1.30906H0.000109379V0.110058H3.05811V7.81006H1.62811ZM7.79756 7.92006C7.1889 7.92006 6.6389 7.76606 6.14756 7.45806C5.66356 7.15006 5.28223 6.70273 5.00356 6.11606C4.7249 5.52206 4.58556 4.80339 4.58556 3.96006C4.58556 3.11672 4.7249 2.40172 5.00356 1.81506C5.28223 1.22106 5.66356 0.770058 6.14756 0.462058C6.6389 0.154058 7.1889 5.81741e-05 7.79756 5.81741e-05C8.41356 5.81741e-05 8.96356 0.154058 9.44756 0.462058C9.93156 0.770058 10.3129 1.22106 10.5916 1.81506C10.8776 2.40172 11.0206 3.11672 11.0206 3.96006C11.0206 4.80339 10.8776 5.52206 10.5916 6.11606C10.3129 6.70273 9.93156 7.15006 9.44756 7.45806C8.96356 7.76606 8.41356 7.92006 7.79756 7.92006ZM7.79756 6.67706C8.1569 6.67706 8.46856 6.58173 8.73256 6.39106C8.99656 6.19306 9.2019 5.89239 9.34856 5.48906C9.50256 5.08573 9.57956 4.57606 9.57956 3.96006C9.57956 3.33672 9.50256 2.82706 9.34856 2.43106C9.2019 2.02772 8.99656 1.73072 8.73256 1.54006C8.46856 1.34206 8.1569 1.24306 7.79756 1.24306C7.4529 1.24306 7.1449 1.34206 6.87356 1.54006C6.60956 1.73072 6.40056 2.02772 6.24656 2.43106C6.0999 2.82706 6.02656 3.33672 6.02656 3.96006C6.02656 4.57606 6.0999 5.08573 6.24656 5.48906C6.40056 5.89239 6.60956 6.19306 6.87356 6.39106C7.1449 6.58173 7.4529 6.67706 7.79756 6.67706Z" fill="white"/>
</svg>
